<svg width="20" height="20" viewBox="0 0 20 20" fill="none" xmlns="http://www.w3.org/2000/svg">
<path d="M9.99731 4.86903C7.15795 4.86903 4.86644 7.16058 4.86644 10C4.86644 12.8394 7.15795 15.131 9.99731 15.131C12.8367 15.131 15.1282 12.8394 15.1282 10C15.1282 7.16058 12.8367 4.86903 9.99731 4.86903ZM9.99731 13.3348C8.16111 13.3348 6.66262 11.8362 6.66262 10C6.66262 8.16376 8.16111 6.66525 9.99731 6.66525C11.8335 6.66525 13.332 8.16376 13.332 10C13.332 11.8362 11.8335 13.3348 9.99731 13.3348ZM15.3383 3.46308C14.6754 3.46308 14.14 3.99845 14.14 4.66139C14.14 5.32434 14.6754 5.8597 15.3383 5.8597C16.0013 5.8597 16.5366 5.32684 16.5366 4.66139C16.5368 4.50397 16.5059 4.34806 16.4458 4.20259C16.3856 4.05711 16.2974 3.92493 16.1861 3.81362C16.0748 3.70231 15.9426 3.61405 15.7971 3.5539C15.6516 3.49375 15.4957 3.46289 15.3383 3.46308ZM19.9989 10C19.9989 8.61907 20.0114 7.25064 19.9338 5.87221C19.8563 4.27113 19.4911 2.85017 18.3203 1.67938C17.147 0.506085 15.7286 0.14334 14.1275 0.065788C12.7466 -0.0117644 11.3782 0.000744113 9.99981 0.000744113C8.61891 0.000744113 7.25051 -0.0117644 5.8721 0.065788C4.27105 0.14334 2.85012 0.508587 1.67935 1.67938C0.506076 2.85267 0.143338 4.27113 0.0657868 5.87221C-0.0117642 7.25314 0.000744099 8.62157 0.000744099 10C0.000744099 11.3784 -0.0117642 12.7494 0.0657868 14.1278C0.143338 15.7289 0.508578 17.1498 1.67935 18.3206C2.85262 19.4939 4.27105 19.8567 5.8721 19.9342C7.25301 20.0118 8.62141 19.9993 9.99981 19.9993C11.3807 19.9993 12.7491 20.0118 14.1275 19.9342C15.7286 19.8567 17.1495 19.4914 18.3203 18.3206C19.4936 17.1473 19.8563 15.7289 19.9338 14.1278C20.0139 12.7494 19.9989 11.3809 19.9989 10ZM17.7974 15.899C17.6148 16.3543 17.3947 16.6945 17.0419 17.0448C16.6892 17.3975 16.3515 17.6176 15.8962 17.8003C14.5803 18.3231 11.4558 18.2055 9.99731 18.2055C8.53885 18.2055 5.4118 18.3231 4.09593 17.8028C3.64064 17.6201 3.30041 17.4 2.95018 17.0473C2.59745 16.6945 2.37731 16.3568 2.19469 15.9015C1.67434 14.5831 1.79192 11.4585 1.79192 10C1.79192 8.54151 1.67434 5.4144 2.19469 4.09851C2.37731 3.6432 2.59745 3.30298 2.95018 2.95274C3.30291 2.6025 3.64064 2.37985 4.09593 2.19723C5.4118 1.67688 8.53885 1.79446 9.99731 1.79446C11.4558 1.79446 14.5828 1.67688 15.8987 2.19723C16.354 2.37985 16.6942 2.6 17.0444 2.95274C17.3972 3.30548 17.6173 3.6432 17.7999 4.09851C18.3203 5.4144 18.2027 8.54151 18.2027 10C18.2027 11.4585 18.3203 14.5831 17.7974 15.899Z" fill="white"/>
</svg>
