<svg width="1075" height="462" viewBox="0 0 1075 462" fill="none" xmlns="http://www.w3.org/2000/svg">
<path d="M9.744 120.2L5.404 130H4.382L0.042 120.2H1.162L4.914 128.712L8.694 120.2H9.744ZM14.2318 122.58C15.1931 122.58 15.9304 122.823 16.4438 123.308C16.9571 123.784 17.2138 124.493 17.2138 125.436V130H16.2618V128.852C16.0378 129.235 15.7064 129.533 15.2678 129.748C14.8384 129.963 14.3251 130.07 13.7278 130.07C12.9064 130.07 12.2531 129.874 11.7678 129.482C11.2824 129.09 11.0398 128.572 11.0398 127.928C11.0398 127.303 11.2638 126.799 11.7118 126.416C12.1691 126.033 12.8924 125.842 13.8818 125.842H16.2198V125.394C16.2198 124.759 16.0424 124.279 15.6878 123.952C15.3331 123.616 14.8151 123.448 14.1338 123.448C13.6671 123.448 13.2191 123.527 12.7898 123.686C12.3604 123.835 11.9918 124.045 11.6838 124.316L11.2358 123.574C11.6091 123.257 12.0571 123.014 12.5798 122.846C13.1024 122.669 13.6531 122.58 14.2318 122.58ZM13.8818 129.286C14.4418 129.286 14.9224 129.16 15.3238 128.908C15.7251 128.647 16.0238 128.273 16.2198 127.788V126.584H13.9098C12.6498 126.584 12.0198 127.023 12.0198 127.9C12.0198 128.329 12.1831 128.67 12.5098 128.922C12.8364 129.165 13.2938 129.286 13.8818 129.286ZM24.9256 122.58C25.8496 122.58 26.5822 122.851 27.1236 123.392C27.6742 123.924 27.9496 124.703 27.9496 125.73V130H26.9556V125.828C26.9556 125.063 26.7642 124.479 26.3816 124.078C25.9989 123.677 25.4529 123.476 24.7436 123.476C23.9502 123.476 23.3202 123.714 22.8536 124.19C22.3962 124.657 22.1676 125.305 22.1676 126.136V130H21.1736V122.636H22.1256V123.994C22.3962 123.546 22.7696 123.201 23.2456 122.958C23.7309 122.706 24.2909 122.58 24.9256 122.58ZM34.9875 130.07C34.2595 130.07 33.6062 129.911 33.0275 129.594C32.4582 129.277 32.0102 128.833 31.6835 128.264C31.3569 127.685 31.1935 127.037 31.1935 126.318C31.1935 125.599 31.3569 124.955 31.6835 124.386C32.0102 123.817 32.4582 123.373 33.0275 123.056C33.6062 122.739 34.2595 122.58 34.9875 122.58C35.6222 122.58 36.1869 122.706 36.6815 122.958C37.1855 123.201 37.5822 123.56 37.8715 124.036L37.1295 124.54C36.8869 124.176 36.5789 123.905 36.2055 123.728C35.8322 123.541 35.4262 123.448 34.9875 123.448C34.4555 123.448 33.9749 123.569 33.5455 123.812C33.1255 124.045 32.7942 124.381 32.5515 124.82C32.3182 125.259 32.2015 125.758 32.2015 126.318C32.2015 126.887 32.3182 127.391 32.5515 127.83C32.7942 128.259 33.1255 128.595 33.5455 128.838C33.9749 129.071 34.4555 129.188 34.9875 129.188C35.4262 129.188 35.8322 129.099 36.2055 128.922C36.5789 128.745 36.8869 128.474 37.1295 128.11L37.8715 128.614C37.5822 129.09 37.1855 129.454 36.6815 129.706C36.1775 129.949 35.6129 130.07 34.9875 130.07ZM43.9712 130.07C43.2618 130.07 42.6225 129.911 42.0532 129.594C41.4838 129.267 41.0358 128.819 40.7092 128.25C40.3825 127.681 40.2192 127.037 40.2192 126.318C40.2192 125.599 40.3825 124.955 40.7092 124.386C41.0358 123.817 41.4838 123.373 42.0532 123.056C42.6225 122.739 43.2618 122.58 43.9712 122.58C44.6805 122.58 45.3198 122.739 45.8892 123.056C46.4585 123.373 46.9018 123.817 47.2192 124.386C47.5458 124.955 47.7092 125.599 47.7092 126.318C47.7092 127.037 47.5458 127.681 47.2192 128.25C46.9018 128.819 46.4585 129.267 45.8892 129.594C45.3198 129.911 44.6805 130.07 43.9712 130.07ZM43.9712 129.188C44.4938 129.188 44.9605 129.071 45.3712 128.838C45.7912 128.595 46.1178 128.255 46.3512 127.816C46.5845 127.377 46.7012 126.878 46.7012 126.318C46.7012 125.758 46.5845 125.259 46.3512 124.82C46.1178 124.381 45.7912 124.045 45.3712 123.812C44.9605 123.569 44.4938 123.448 43.9712 123.448C43.4485 123.448 42.9772 123.569 42.5572 123.812C42.1465 124.045 41.8198 124.381 41.5772 124.82C41.3438 125.259 41.2272 125.758 41.2272 126.318C41.2272 126.878 41.3438 127.377 41.5772 127.816C41.8198 128.255 42.1465 128.595 42.5572 128.838C42.9772 129.071 43.4485 129.188 43.9712 129.188ZM57.6345 122.636V130H56.6825V128.656C56.4212 129.104 56.0618 129.454 55.6045 129.706C55.1472 129.949 54.6245 130.07 54.0365 130.07C53.0752 130.07 52.3145 129.804 51.7545 129.272C51.2038 128.731 50.9285 127.942 50.9285 126.906V122.636H51.9225V126.808C51.9225 127.583 52.1138 128.171 52.4965 128.572C52.8792 128.973 53.4252 129.174 54.1345 129.174C54.9092 129.174 55.5205 128.941 55.9685 128.474C56.4165 127.998 56.6405 127.34 56.6405 126.5V122.636H57.6345ZM67.8664 122.636L64.5904 130H63.5684L60.3064 122.636H61.3424L64.1004 128.908L66.8864 122.636H67.8664ZM76.7332 126.626H70.5732C70.6292 127.391 70.9232 128.012 71.4552 128.488C71.9872 128.955 72.6592 129.188 73.4712 129.188C73.9286 129.188 74.3486 129.109 74.7312 128.95C75.1139 128.782 75.4452 128.539 75.7252 128.222L76.2852 128.866C75.9586 129.258 75.5479 129.557 75.0532 129.762C74.5679 129.967 74.0312 130.07 73.4432 130.07C72.6872 130.07 72.0152 129.911 71.4272 129.594C70.8486 129.267 70.3959 128.819 70.0692 128.25C69.7426 127.681 69.5792 127.037 69.5792 126.318C69.5792 125.599 69.7332 124.955 70.0412 124.386C70.3586 123.817 70.7879 123.373 71.3292 123.056C71.8799 122.739 72.4959 122.58 73.1772 122.58C73.8586 122.58 74.4699 122.739 75.0112 123.056C75.5526 123.373 75.9772 123.817 76.2852 124.386C76.5932 124.946 76.7472 125.59 76.7472 126.318L76.7332 126.626ZM73.1772 123.434C72.4679 123.434 71.8706 123.663 71.3852 124.12C70.9092 124.568 70.6386 125.156 70.5732 125.884H75.7952C75.7299 125.156 75.4546 124.568 74.9692 124.12C74.4932 123.663 73.8959 123.434 73.1772 123.434ZM80.9825 124.078C81.2158 123.583 81.5611 123.21 82.0185 122.958C82.4851 122.706 83.0591 122.58 83.7405 122.58V123.546L83.5025 123.532C82.7278 123.532 82.1211 123.77 81.6825 124.246C81.2438 124.722 81.0245 125.389 81.0245 126.248V130H80.0305V122.636H80.9825V124.078Z" fill="white"/>
<path d="M342.744 125.2L338.404 135H337.382L333.042 125.2H334.162L337.914 133.712L341.694 125.2H342.744ZM345.175 127.636H346.169V135H345.175V127.636ZM345.679 126.026C345.474 126.026 345.301 125.956 345.161 125.816C345.021 125.676 344.951 125.508 344.951 125.312C344.951 125.125 345.021 124.962 345.161 124.822C345.301 124.682 345.474 124.612 345.679 124.612C345.885 124.612 346.057 124.682 346.197 124.822C346.337 124.953 346.407 125.111 346.407 125.298C346.407 125.503 346.337 125.676 346.197 125.816C346.057 125.956 345.885 126.026 345.679 126.026ZM353.247 135.07C352.519 135.07 351.866 134.911 351.287 134.594C350.718 134.277 350.27 133.833 349.943 133.264C349.616 132.685 349.453 132.037 349.453 131.318C349.453 130.599 349.616 129.955 349.943 129.386C350.27 128.817 350.718 128.373 351.287 128.056C351.866 127.739 352.519 127.58 353.247 127.58C353.882 127.58 354.446 127.706 354.941 127.958C355.445 128.201 355.842 128.56 356.131 129.036L355.389 129.54C355.146 129.176 354.838 128.905 354.465 128.728C354.092 128.541 353.686 128.448 353.247 128.448C352.715 128.448 352.234 128.569 351.805 128.812C351.385 129.045 351.054 129.381 350.811 129.82C350.578 130.259 350.461 130.758 350.461 131.318C350.461 131.887 350.578 132.391 350.811 132.83C351.054 133.259 351.385 133.595 351.805 133.838C352.234 134.071 352.715 134.188 353.247 134.188C353.686 134.188 354.092 134.099 354.465 133.922C354.838 133.745 355.146 133.474 355.389 133.11L356.131 133.614C355.842 134.09 355.445 134.454 354.941 134.706C354.437 134.949 353.872 135.07 353.247 135.07ZM363.304 134.552C363.117 134.72 362.884 134.851 362.604 134.944C362.333 135.028 362.048 135.07 361.75 135.07C361.059 135.07 360.527 134.883 360.154 134.51C359.78 134.137 359.594 133.609 359.594 132.928V128.476H358.278V127.636H359.594V126.026H360.588V127.636H362.828V128.476H360.588V132.872C360.588 133.311 360.695 133.647 360.91 133.88C361.134 134.104 361.451 134.216 361.862 134.216C362.067 134.216 362.263 134.183 362.45 134.118C362.646 134.053 362.814 133.959 362.954 133.838L363.304 134.552ZM369.124 135.07C368.414 135.07 367.775 134.911 367.206 134.594C366.636 134.267 366.188 133.819 365.862 133.25C365.535 132.681 365.372 132.037 365.372 131.318C365.372 130.599 365.535 129.955 365.862 129.386C366.188 128.817 366.636 128.373 367.206 128.056C367.775 127.739 368.414 127.58 369.124 127.58C369.833 127.58 370.472 127.739 371.042 128.056C371.611 128.373 372.054 128.817 372.372 129.386C372.698 129.955 372.862 130.599 372.862 131.318C372.862 132.037 372.698 132.681 372.372 133.25C372.054 133.819 371.611 134.267 371.042 134.594C370.472 134.911 369.833 135.07 369.124 135.07ZM369.124 134.188C369.646 134.188 370.113 134.071 370.524 133.838C370.944 133.595 371.27 133.255 371.504 132.816C371.737 132.377 371.854 131.878 371.854 131.318C371.854 130.758 371.737 130.259 371.504 129.82C371.27 129.381 370.944 129.045 370.524 128.812C370.113 128.569 369.646 128.448 369.124 128.448C368.601 128.448 368.13 128.569 367.71 128.812C367.299 129.045 366.972 129.381 366.73 129.82C366.496 130.259 366.38 130.758 366.38 131.318C366.38 131.878 366.496 132.377 366.73 132.816C366.972 133.255 367.299 133.595 367.71 133.838C368.13 134.071 368.601 134.188 369.124 134.188ZM377.103 129.078C377.336 128.583 377.682 128.21 378.139 127.958C378.606 127.706 379.18 127.58 379.861 127.58V128.546L379.623 128.532C378.848 128.532 378.242 128.77 377.803 129.246C377.364 129.722 377.145 130.389 377.145 131.248V135H376.151V127.636H377.103V129.078ZM382.921 127.636H383.915V135H382.921V127.636ZM383.425 126.026C383.219 126.026 383.047 125.956 382.907 125.816C382.767 125.676 382.697 125.508 382.697 125.312C382.697 125.125 382.767 124.962 382.907 124.822C383.047 124.682 383.219 124.612 383.425 124.612C383.63 124.612 383.803 124.682 383.943 124.822C384.083 124.953 384.153 125.111 384.153 125.298C384.153 125.503 384.083 125.676 383.943 125.816C383.803 125.956 383.63 126.026 383.425 126.026ZM390.516 127.58C391.478 127.58 392.215 127.823 392.728 128.308C393.242 128.784 393.498 129.493 393.498 130.436V135H392.546V133.852C392.322 134.235 391.991 134.533 391.552 134.748C391.123 134.963 390.61 135.07 390.012 135.07C389.191 135.07 388.538 134.874 388.052 134.482C387.567 134.09 387.324 133.572 387.324 132.928C387.324 132.303 387.548 131.799 387.996 131.416C388.454 131.033 389.177 130.842 390.166 130.842H392.504V130.394C392.504 129.759 392.327 129.279 391.972 128.952C391.618 128.616 391.1 128.448 390.418 128.448C389.952 128.448 389.504 128.527 389.074 128.686C388.645 128.835 388.276 129.045 387.968 129.316L387.52 128.574C387.894 128.257 388.342 128.014 388.864 127.846C389.387 127.669 389.938 127.58 390.516 127.58ZM390.166 134.286C390.726 134.286 391.207 134.16 391.608 133.908C392.01 133.647 392.308 133.273 392.504 132.788V131.584H390.194C388.934 131.584 388.304 132.023 388.304 132.9C388.304 133.329 388.468 133.67 388.794 133.922C389.121 134.165 389.578 134.286 390.166 134.286Z" fill="white"/>
<path d="M648.264 125.2C649.515 125.2 650.495 125.499 651.204 126.096C651.913 126.693 652.268 127.515 652.268 128.56C652.268 129.605 651.913 130.427 651.204 131.024C650.495 131.612 649.515 131.906 648.264 131.906H645.632V135H644.596V125.2H648.264ZM648.236 130.996C649.207 130.996 649.949 130.786 650.462 130.366C650.975 129.937 651.232 129.335 651.232 128.56C651.232 127.767 650.975 127.16 650.462 126.74C649.949 126.311 649.207 126.096 648.236 126.096H645.632V130.996H648.236ZM658.066 127.58C659.027 127.58 659.764 127.823 660.278 128.308C660.791 128.784 661.048 129.493 661.048 130.436V135H660.096V133.852C659.872 134.235 659.54 134.533 659.102 134.748C658.672 134.963 658.159 135.07 657.562 135.07C656.74 135.07 656.087 134.874 655.602 134.482C655.116 134.09 654.874 133.572 654.874 132.928C654.874 132.303 655.098 131.799 655.546 131.416C656.003 131.033 656.726 130.842 657.716 130.842H660.054V130.394C660.054 129.759 659.876 129.279 659.522 128.952C659.167 128.616 658.649 128.448 657.968 128.448C657.501 128.448 657.053 128.527 656.624 128.686C656.194 128.835 655.826 129.045 655.518 129.316L655.07 128.574C655.443 128.257 655.891 128.014 656.414 127.846C656.936 127.669 657.487 127.58 658.066 127.58ZM657.716 134.286C658.276 134.286 658.756 134.16 659.158 133.908C659.559 133.647 659.858 133.273 660.054 132.788V131.584H657.744C656.484 131.584 655.854 132.023 655.854 132.9C655.854 133.329 656.017 133.67 656.344 133.922C656.67 134.165 657.128 134.286 657.716 134.286ZM668.087 135.07C667.359 135.07 666.706 134.911 666.127 134.594C665.558 134.277 665.11 133.833 664.783 133.264C664.456 132.685 664.293 132.037 664.293 131.318C664.293 130.599 664.456 129.955 664.783 129.386C665.11 128.817 665.558 128.373 666.127 128.056C666.706 127.739 667.359 127.58 668.087 127.58C668.722 127.58 669.286 127.706 669.781 127.958C670.285 128.201 670.682 128.56 670.971 129.036L670.229 129.54C669.986 129.176 669.678 128.905 669.305 128.728C668.932 128.541 668.526 128.448 668.087 128.448C667.555 128.448 667.074 128.569 666.645 128.812C666.225 129.045 665.894 129.381 665.651 129.82C665.418 130.259 665.301 130.758 665.301 131.318C665.301 131.887 665.418 132.391 665.651 132.83C665.894 133.259 666.225 133.595 666.645 133.838C667.074 134.071 667.555 134.188 668.087 134.188C668.526 134.188 668.932 134.099 669.305 133.922C669.678 133.745 669.986 133.474 670.229 133.11L670.971 133.614C670.682 134.09 670.285 134.454 669.781 134.706C669.277 134.949 668.712 135.07 668.087 135.07ZM674.184 127.636H675.178V135H674.184V127.636ZM674.688 126.026C674.482 126.026 674.31 125.956 674.17 125.816C674.03 125.676 673.96 125.508 673.96 125.312C673.96 125.125 674.03 124.962 674.17 124.822C674.31 124.682 674.482 124.612 674.688 124.612C674.893 124.612 675.066 124.682 675.206 124.822C675.346 124.953 675.416 125.111 675.416 125.298C675.416 125.503 675.346 125.676 675.206 125.816C675.066 125.956 674.893 126.026 674.688 126.026ZM681.639 125.382C681.21 125.382 680.883 125.499 680.659 125.732C680.445 125.965 680.337 126.311 680.337 126.768V127.636H682.605V128.476H680.365V135H679.371V128.476H678.055V127.636H679.371V126.726C679.371 126.054 679.563 125.522 679.945 125.13C680.337 124.738 680.888 124.542 681.597 124.542C681.877 124.542 682.148 124.584 682.409 124.668C682.671 124.743 682.89 124.855 683.067 125.004L682.731 125.746C682.442 125.503 682.078 125.382 681.639 125.382ZM685.069 127.636H686.063V135H685.069V127.636ZM685.573 126.026C685.368 126.026 685.195 125.956 685.055 125.816C684.915 125.676 684.845 125.508 684.845 125.312C684.845 125.125 684.915 124.962 685.055 124.822C685.195 124.682 685.368 124.612 685.573 124.612C685.779 124.612 685.951 124.682 686.091 124.822C686.231 124.953 686.301 125.111 686.301 125.298C686.301 125.503 686.231 125.676 686.091 125.816C685.951 125.956 685.779 126.026 685.573 126.026ZM693.154 135.07C692.426 135.07 691.773 134.911 691.194 134.594C690.625 134.277 690.177 133.833 689.85 133.264C689.523 132.685 689.36 132.037 689.36 131.318C689.36 130.599 689.523 129.955 689.85 129.386C690.177 128.817 690.625 128.373 691.194 128.056C691.773 127.739 692.426 127.58 693.154 127.58C693.789 127.58 694.353 127.706 694.848 127.958C695.352 128.201 695.749 128.56 696.038 129.036L695.296 129.54C695.053 129.176 694.745 128.905 694.372 128.728C693.999 128.541 693.593 128.448 693.154 128.448C692.622 128.448 692.141 128.569 691.712 128.812C691.292 129.045 690.961 129.381 690.718 129.82C690.485 130.259 690.368 130.758 690.368 131.318C690.368 131.887 690.485 132.391 690.718 132.83C690.961 133.259 691.292 133.595 691.712 133.838C692.141 134.071 692.622 134.188 693.154 134.188C693.593 134.188 693.999 134.099 694.372 133.922C694.745 133.745 695.053 133.474 695.296 133.11L696.038 133.614C695.749 134.09 695.352 134.454 694.848 134.706C694.344 134.949 693.779 135.07 693.154 135.07ZM711.077 135L708.837 131.85C708.585 131.878 708.323 131.892 708.053 131.892H705.421V135H704.385V125.2H708.053C709.303 125.2 710.283 125.499 710.993 126.096C711.702 126.693 712.057 127.515 712.057 128.56C712.057 129.325 711.861 129.974 711.469 130.506C711.086 131.029 710.535 131.407 709.817 131.64L712.211 135H711.077ZM708.025 131.01C708.995 131.01 709.737 130.795 710.251 130.366C710.764 129.937 711.021 129.335 711.021 128.56C711.021 127.767 710.764 127.16 710.251 126.74C709.737 126.311 708.995 126.096 708.025 126.096H705.421V131.01H708.025ZM715.552 127.636H716.546V135H715.552V127.636ZM716.056 126.026C715.851 126.026 715.678 125.956 715.538 125.816C715.398 125.676 715.328 125.508 715.328 125.312C715.328 125.125 715.398 124.962 715.538 124.822C715.678 124.682 715.851 124.612 716.056 124.612C716.261 124.612 716.434 124.682 716.574 124.822C716.714 124.953 716.784 125.111 716.784 125.298C716.784 125.503 716.714 125.676 716.574 125.816C716.434 125.956 716.261 126.026 716.056 126.026ZM729.756 127.58C730.68 127.58 731.403 127.846 731.926 128.378C732.458 128.91 732.724 129.694 732.724 130.73V135H731.73V130.828C731.73 130.063 731.543 129.479 731.17 129.078C730.806 128.677 730.288 128.476 729.616 128.476C728.85 128.476 728.248 128.714 727.81 129.19C727.371 129.657 727.152 130.305 727.152 131.136V135H726.158V130.828C726.158 130.063 725.971 129.479 725.598 129.078C725.234 128.677 724.711 128.476 724.03 128.476C723.274 128.476 722.672 128.714 722.224 129.19C721.785 129.657 721.566 130.305 721.566 131.136V135H720.572V127.636H721.524V128.98C721.785 128.532 722.149 128.187 722.616 127.944C723.082 127.701 723.619 127.58 724.226 127.58C724.842 127.58 725.374 127.711 725.822 127.972C726.279 128.233 726.62 128.621 726.844 129.134C727.114 128.649 727.502 128.271 728.006 128C728.519 127.72 729.102 127.58 729.756 127.58Z" fill="white"/>
<path d="M993.05 125.2L989.746 135H988.654L985.784 126.642L982.9 135H981.822L978.518 125.2H979.582L982.41 133.628L985.336 125.2H986.302L989.186 133.67L992.056 125.2H993.05ZM999.957 127.58C1000.88 127.58 1001.61 127.851 1002.15 128.392C1002.71 128.924 1002.98 129.703 1002.98 130.73V135H1001.99V130.828C1001.99 130.063 1001.8 129.479 1001.41 129.078C1001.03 128.677 1000.48 128.476 999.775 128.476C998.981 128.476 998.351 128.714 997.885 129.19C997.427 129.657 997.199 130.305 997.199 131.136V135H996.205V124.612H997.199V128.924C997.469 128.495 997.843 128.163 998.319 127.93C998.795 127.697 999.341 127.58 999.957 127.58ZM1006.94 127.636H1007.93V135H1006.94V127.636ZM1007.44 126.026C1007.24 126.026 1007.07 125.956 1006.93 125.816C1006.79 125.676 1006.72 125.508 1006.72 125.312C1006.72 125.125 1006.79 124.962 1006.93 124.822C1007.07 124.682 1007.24 124.612 1007.44 124.612C1007.65 124.612 1007.82 124.682 1007.96 124.822C1008.1 124.953 1008.17 125.111 1008.17 125.298C1008.17 125.503 1008.1 125.676 1007.96 125.816C1007.82 125.956 1007.65 126.026 1007.44 126.026ZM1013.93 135.07C1013.34 135.07 1012.76 134.986 1012.21 134.818C1011.67 134.641 1011.24 134.421 1010.94 134.16L1011.38 133.376C1011.69 133.619 1012.08 133.819 1012.55 133.978C1013.01 134.127 1013.5 134.202 1014 134.202C1014.67 134.202 1015.17 134.099 1015.49 133.894C1015.81 133.679 1015.98 133.381 1015.98 132.998C1015.98 132.727 1015.89 132.517 1015.71 132.368C1015.53 132.209 1015.31 132.093 1015.04 132.018C1014.77 131.934 1014.41 131.855 1013.96 131.78C1013.36 131.668 1012.88 131.556 1012.52 131.444C1012.15 131.323 1011.84 131.122 1011.58 130.842C1011.33 130.562 1011.2 130.175 1011.2 129.68C1011.2 129.064 1011.46 128.56 1011.97 128.168C1012.49 127.776 1013.2 127.58 1014.11 127.58C1014.59 127.58 1015.07 127.645 1015.54 127.776C1016.02 127.897 1016.41 128.061 1016.72 128.266L1016.28 129.064C1015.68 128.644 1014.95 128.434 1014.11 128.434C1013.48 128.434 1013 128.546 1012.67 128.77C1012.36 128.994 1012.2 129.288 1012.2 129.652C1012.2 129.932 1012.29 130.156 1012.46 130.324C1012.65 130.492 1012.88 130.618 1013.15 130.702C1013.42 130.777 1013.79 130.856 1014.27 130.94C1014.86 131.052 1015.33 131.164 1015.68 131.276C1016.04 131.388 1016.34 131.579 1016.59 131.85C1016.84 132.121 1016.97 132.494 1016.97 132.97C1016.97 133.614 1016.7 134.127 1016.16 134.51C1015.63 134.883 1014.88 135.07 1013.93 135.07ZM1023.95 134.552C1023.76 134.72 1023.53 134.851 1023.25 134.944C1022.98 135.028 1022.69 135.07 1022.39 135.07C1021.7 135.07 1021.17 134.883 1020.8 134.51C1020.42 134.137 1020.24 133.609 1020.24 132.928V128.476H1018.92V127.636H1020.24V126.026H1021.23V127.636H1023.47V128.476H1021.23V132.872C1021.23 133.311 1021.34 133.647 1021.55 133.88C1021.78 134.104 1022.09 134.216 1022.5 134.216C1022.71 134.216 1022.91 134.183 1023.09 134.118C1023.29 134.053 1023.46 133.959 1023.6 133.838L1023.95 134.552ZM1027.02 124.612H1028.01V135H1027.02V124.612ZM1038.45 131.626H1032.29C1032.34 132.391 1032.64 133.012 1033.17 133.488C1033.7 133.955 1034.37 134.188 1035.19 134.188C1035.64 134.188 1036.06 134.109 1036.45 133.95C1036.83 133.782 1037.16 133.539 1037.44 133.222L1038 133.866C1037.67 134.258 1037.26 134.557 1036.77 134.762C1036.28 134.967 1035.75 135.07 1035.16 135.07C1034.4 135.07 1033.73 134.911 1033.14 134.594C1032.56 134.267 1032.11 133.819 1031.78 133.25C1031.46 132.681 1031.29 132.037 1031.29 131.318C1031.29 130.599 1031.45 129.955 1031.76 129.386C1032.07 128.817 1032.5 128.373 1033.04 128.056C1033.59 127.739 1034.21 127.58 1034.89 127.58C1035.57 127.58 1036.18 127.739 1036.73 128.056C1037.27 128.373 1037.69 128.817 1038 129.386C1038.31 129.946 1038.46 130.59 1038.46 131.318L1038.45 131.626ZM1034.89 128.434C1034.18 128.434 1033.59 128.663 1033.1 129.12C1032.62 129.568 1032.35 130.156 1032.29 130.884H1037.51C1037.44 130.156 1037.17 129.568 1036.68 129.12C1036.21 128.663 1035.61 128.434 1034.89 128.434ZM1042.7 129.078C1042.93 128.583 1043.28 128.21 1043.73 127.958C1044.2 127.706 1044.77 127.58 1045.46 127.58V128.546L1045.22 128.532C1044.44 128.532 1043.84 128.77 1043.4 129.246C1042.96 129.722 1042.74 130.389 1042.74 131.248V135H1041.75V127.636H1042.7V129.078Z" fill="white"/>
<path d="M40.9147 194.2V204H39.9067V195.096H37.5967V194.2H40.9147Z" fill="white"/>
<path d="M40 231C21.7746 231 7 216.225 7 198H5C5 217.33 20.67 233 40 233V231ZM73 198C73 216.225 58.2254 231 40 231V233C59.33 233 75 217.33 75 198H73ZM40 165C58.2254 165 73 179.775 73 198H75C75 178.67 59.33 163 40 163V165ZM40 163C20.67 163 5 178.67 5 198H7C7 179.775 21.7746 165 40 165V163Z" fill="white"/>
<path d="M367.441 203.104V204H360.567V203.286L364.641 199.296C365.155 198.792 365.5 198.358 365.677 197.994C365.864 197.621 365.957 197.247 365.957 196.874C365.957 196.295 365.757 195.847 365.355 195.53C364.963 195.203 364.399 195.04 363.661 195.04C362.513 195.04 361.622 195.404 360.987 196.132L360.273 195.516C360.656 195.068 361.141 194.723 361.729 194.48C362.327 194.237 362.999 194.116 363.745 194.116C364.744 194.116 365.533 194.354 366.111 194.83C366.699 195.297 366.993 195.941 366.993 196.762C366.993 197.266 366.881 197.751 366.657 198.218C366.433 198.685 366.009 199.221 365.383 199.828L362.051 203.104H367.441Z" fill="white"/>
<path d="M364 231C345.775 231 331 216.225 331 198H329C329 217.33 344.67 233 364 233V231ZM397 198C397 216.225 382.225 231 364 231V233C383.33 233 399 217.33 399 198H397ZM364 165C382.225 165 397 179.775 397 198H399C399 178.67 383.33 163 364 163V165ZM364 163C344.67 163 329 178.67 329 198H331C331 179.775 345.775 165 364 165V163Z" fill="white"/>
<path d="M688.109 198.4C689.135 198.456 689.915 198.736 690.447 199.24C690.988 199.735 691.259 200.383 691.259 201.186C691.259 201.746 691.123 202.245 690.853 202.684C690.582 203.113 690.181 203.454 689.649 203.706C689.117 203.958 688.468 204.084 687.703 204.084C686.993 204.084 686.321 203.972 685.687 203.748C685.061 203.515 684.557 203.207 684.175 202.824L684.665 202.026C684.991 202.362 685.425 202.637 685.967 202.852C686.508 203.057 687.087 203.16 687.703 203.16C688.505 203.16 689.126 202.987 689.565 202.642C690.003 202.287 690.223 201.802 690.223 201.186C690.223 200.579 690.003 200.103 689.565 199.758C689.126 199.413 688.463 199.24 687.577 199.24H686.877V198.498L689.593 195.096H684.581V194.2H690.881V194.914L688.109 198.4Z" fill="white"/>
<path d="M688 231C669.775 231 655 216.225 655 198H653C653 217.33 668.67 233 688 233V231ZM721 198C721 216.225 706.225 231 688 231V233C707.33 233 723 217.33 723 198H721ZM688 165C706.225 165 721 179.775 721 198H723C723 178.67 707.33 163 688 163V165ZM688 163C668.67 163 653 178.67 653 198H655C655 179.775 669.775 165 688 165V163Z" fill="white"/>
<path d="M1016.43 201.424H1014.47V204H1013.46V201.424H1007.93V200.696L1013.13 194.2H1014.25L1009.23 200.528H1013.49V198.26H1014.47V200.528H1016.43V201.424Z" fill="white"/>
<path d="M1012 231C993.775 231 979 216.225 979 198H977C977 217.33 992.67 233 1012 233V231ZM1045 198C1045 216.225 1030.23 231 1012 231V233C1031.33 233 1047 217.33 1047 198H1045ZM1012 165C1030.23 165 1045 179.775 1045 198H1047C1047 178.67 1031.33 163 1012 163V165ZM1012 163C992.67 163 977 178.67 977 198H979C979 179.775 993.775 165 1012 165V163Z" fill="white"/>
<path d="M108.411 198H294.576" stroke="white"/>
<path d="M435.411 198H621.576" stroke="white"/>
<path d="M762.411 198H948.576" stroke="white"/>
<path d="M984.226 426.2L980.922 436H979.83L976.96 427.642L974.076 436H972.998L969.694 426.2H970.758L973.586 434.628L976.512 426.2H977.478L980.362 434.67L983.232 426.2H984.226ZM993.027 432.626H986.867C986.923 433.391 987.217 434.012 987.749 434.488C988.281 434.955 988.953 435.188 989.765 435.188C990.222 435.188 990.642 435.109 991.025 434.95C991.407 434.782 991.739 434.539 992.019 434.222L992.579 434.866C992.252 435.258 991.841 435.557 991.347 435.762C990.861 435.967 990.325 436.07 989.737 436.07C988.981 436.07 988.309 435.911 987.721 435.594C987.142 435.267 986.689 434.819 986.363 434.25C986.036 433.681 985.873 433.037 985.873 432.318C985.873 431.599 986.027 430.955 986.335 430.386C986.652 429.817 987.081 429.373 987.623 429.056C988.173 428.739 988.789 428.58 989.471 428.58C990.152 428.58 990.763 428.739 991.305 429.056C991.846 429.373 992.271 429.817 992.579 430.386C992.887 430.946 993.041 431.59 993.041 432.318L993.027 432.626ZM989.471 429.434C988.761 429.434 988.164 429.663 987.679 430.12C987.203 430.568 986.932 431.156 986.867 431.884H992.089C992.023 431.156 991.748 430.568 991.263 430.12C990.787 429.663 990.189 429.434 989.471 429.434ZM996.324 425.612H997.318V436H996.324V425.612ZM1001.34 425.612H1002.34V436H1001.34V425.612ZM1008.34 436.07C1007.74 436.07 1007.17 435.986 1006.62 435.818C1006.07 435.641 1005.65 435.421 1005.34 435.16L1005.79 434.376C1006.1 434.619 1006.48 434.819 1006.95 434.978C1007.42 435.127 1007.9 435.202 1008.41 435.202C1009.08 435.202 1009.57 435.099 1009.89 434.894C1010.22 434.679 1010.38 434.381 1010.38 433.998C1010.38 433.727 1010.29 433.517 1010.12 433.368C1009.94 433.209 1009.71 433.093 1009.44 433.018C1009.17 432.934 1008.81 432.855 1008.37 432.78C1007.77 432.668 1007.29 432.556 1006.92 432.444C1006.56 432.323 1006.25 432.122 1005.99 431.842C1005.73 431.562 1005.61 431.175 1005.61 430.68C1005.61 430.064 1005.86 429.56 1006.38 429.168C1006.89 428.776 1007.6 428.58 1008.52 428.58C1009 428.58 1009.47 428.645 1009.95 428.776C1010.42 428.897 1010.82 429.061 1011.12 429.266L1010.69 430.064C1010.08 429.644 1009.36 429.434 1008.52 429.434C1007.88 429.434 1007.4 429.546 1007.08 429.77C1006.76 429.994 1006.6 430.288 1006.6 430.652C1006.6 430.932 1006.69 431.156 1006.87 431.324C1007.05 431.492 1007.28 431.618 1007.55 431.702C1007.82 431.777 1008.2 431.856 1008.67 431.94C1009.26 432.052 1009.73 432.164 1010.09 432.276C1010.44 432.388 1010.75 432.579 1011 432.85C1011.25 433.121 1011.38 433.494 1011.38 433.97C1011.38 434.614 1011.1 435.127 1010.56 435.51C1010.03 435.883 1009.29 436.07 1008.34 436.07ZM1026.51 431.1H1027.5V434.838C1027.05 435.239 1026.5 435.547 1025.88 435.762C1025.25 435.977 1024.6 436.084 1023.91 436.084C1022.93 436.084 1022.04 435.869 1021.26 435.44C1020.48 435.011 1019.86 434.418 1019.41 433.662C1018.96 432.897 1018.74 432.043 1018.74 431.1C1018.74 430.157 1018.96 429.308 1019.41 428.552C1019.86 427.787 1020.48 427.189 1021.26 426.76C1022.04 426.331 1022.93 426.116 1023.92 426.116C1024.67 426.116 1025.35 426.237 1025.98 426.48C1026.6 426.713 1027.13 427.063 1027.56 427.53L1026.92 428.188C1026.14 427.423 1025.16 427.04 1023.96 427.04C1023.17 427.04 1022.45 427.217 1021.81 427.572C1021.17 427.917 1020.67 428.403 1020.31 429.028C1019.94 429.644 1019.76 430.335 1019.76 431.1C1019.76 431.865 1019.94 432.556 1020.31 433.172C1020.67 433.788 1021.17 434.273 1021.81 434.628C1022.44 434.983 1023.15 435.16 1023.95 435.16C1024.96 435.16 1025.81 434.908 1026.51 434.404V431.1ZM1032.44 430.078C1032.67 429.583 1033.02 429.21 1033.47 428.958C1033.94 428.706 1034.51 428.58 1035.2 428.58V429.546L1034.96 429.532C1034.18 429.532 1033.58 429.77 1033.14 430.246C1032.7 430.722 1032.48 431.389 1032.48 432.248V436H1031.49V428.636H1032.44V430.078ZM1040.82 428.58C1041.78 428.58 1042.52 428.823 1043.03 429.308C1043.54 429.784 1043.8 430.493 1043.8 431.436V436H1042.85V434.852C1042.62 435.235 1042.29 435.533 1041.85 435.748C1041.42 435.963 1040.91 436.07 1040.31 436.07C1039.49 436.07 1038.84 435.874 1038.35 435.482C1037.87 435.09 1037.63 434.572 1037.63 433.928C1037.63 433.303 1037.85 432.799 1038.3 432.416C1038.75 432.033 1039.48 431.842 1040.47 431.842H1042.81V431.394C1042.81 430.759 1042.63 430.279 1042.27 429.952C1041.92 429.616 1041.4 429.448 1040.72 429.448C1040.25 429.448 1039.8 429.527 1039.38 429.686C1038.95 429.835 1038.58 430.045 1038.27 430.316L1037.82 429.574C1038.19 429.257 1038.64 429.014 1039.17 428.846C1039.69 428.669 1040.24 428.58 1040.82 428.58ZM1040.47 435.286C1041.03 435.286 1041.51 435.16 1041.91 434.908C1042.31 434.647 1042.61 434.273 1042.81 433.788V432.584H1040.5C1039.24 432.584 1038.61 433.023 1038.61 433.9C1038.61 434.329 1038.77 434.67 1039.1 434.922C1039.42 435.165 1039.88 435.286 1040.47 435.286ZM1053.81 428.636L1050.13 436.882C1049.83 437.573 1049.48 438.063 1049.09 438.352C1048.7 438.641 1048.23 438.786 1047.68 438.786C1047.32 438.786 1046.99 438.73 1046.68 438.618C1046.38 438.506 1046.11 438.338 1045.89 438.114L1046.35 437.372C1046.72 437.745 1047.17 437.932 1047.69 437.932C1048.03 437.932 1048.31 437.839 1048.55 437.652C1048.79 437.465 1049.01 437.148 1049.22 436.7L1049.54 435.986L1046.25 428.636H1047.29L1050.06 434.894L1052.83 428.636H1053.81ZM958.439 447.2C959.69 447.2 960.67 447.499 961.379 448.096C962.089 448.693 962.443 449.515 962.443 450.56C962.443 451.605 962.089 452.427 961.379 453.024C960.67 453.612 959.69 453.906 958.439 453.906H955.807V457H954.771V447.2H958.439ZM958.411 452.996C959.382 452.996 960.124 452.786 960.637 452.366C961.151 451.937 961.407 451.335 961.407 450.56C961.407 449.767 961.151 449.16 960.637 448.74C960.124 448.311 959.382 448.096 958.411 448.096H955.807V452.996H958.411ZM966.494 451.078C966.727 450.583 967.073 450.21 967.53 449.958C967.997 449.706 968.571 449.58 969.252 449.58V450.546L969.014 450.532C968.239 450.532 967.633 450.77 967.194 451.246C966.755 451.722 966.536 452.389 966.536 453.248V457H965.542V449.636H966.494V451.078ZM975.253 457.07C974.544 457.07 973.905 456.911 973.335 456.594C972.766 456.267 972.318 455.819 971.991 455.25C971.665 454.681 971.501 454.037 971.501 453.318C971.501 452.599 971.665 451.955 971.991 451.386C972.318 450.817 972.766 450.373 973.335 450.056C973.905 449.739 974.544 449.58 975.253 449.58C975.963 449.58 976.602 449.739 977.171 450.056C977.741 450.373 978.184 450.817 978.501 451.386C978.828 451.955 978.991 452.599 978.991 453.318C978.991 454.037 978.828 454.681 978.501 455.25C978.184 455.819 977.741 456.267 977.171 456.594C976.602 456.911 975.963 457.07 975.253 457.07ZM975.253 456.188C975.776 456.188 976.243 456.071 976.653 455.838C977.073 455.595 977.4 455.255 977.633 454.816C977.867 454.377 977.983 453.878 977.983 453.318C977.983 452.758 977.867 452.259 977.633 451.82C977.4 451.381 977.073 451.045 976.653 450.812C976.243 450.569 975.776 450.448 975.253 450.448C974.731 450.448 974.259 450.569 973.839 450.812C973.429 451.045 973.102 451.381 972.859 451.82C972.626 452.259 972.509 452.758 972.509 453.318C972.509 453.878 972.626 454.377 972.859 454.816C973.102 455.255 973.429 455.595 973.839 455.838C974.259 456.071 974.731 456.188 975.253 456.188ZM988.264 449.636L984.988 457H983.966L980.704 449.636H981.74L984.498 455.908L987.284 449.636H988.264ZM990.923 449.636H991.917V457H990.923V449.636ZM991.427 448.026C991.222 448.026 991.049 447.956 990.909 447.816C990.769 447.676 990.699 447.508 990.699 447.312C990.699 447.125 990.769 446.962 990.909 446.822C991.049 446.682 991.222 446.612 991.427 446.612C991.633 446.612 991.805 446.682 991.945 446.822C992.085 446.953 992.155 447.111 992.155 447.298C992.155 447.503 992.085 447.676 991.945 447.816C991.805 447.956 991.633 448.026 991.427 448.026ZM999.695 449.58C1000.62 449.58 1001.35 449.851 1001.89 450.392C1002.44 450.924 1002.72 451.703 1002.72 452.73V457H1001.73V452.828C1001.73 452.063 1001.53 451.479 1001.15 451.078C1000.77 450.677 1000.22 450.476 999.513 450.476C998.72 450.476 998.09 450.714 997.623 451.19C997.166 451.657 996.937 452.305 996.937 453.136V457H995.943V449.636H996.895V450.994C997.166 450.546 997.539 450.201 998.015 449.958C998.501 449.706 999.061 449.58 999.695 449.58ZM1009.76 457.07C1009.03 457.07 1008.38 456.911 1007.8 456.594C1007.23 456.277 1006.78 455.833 1006.45 455.264C1006.13 454.685 1005.96 454.037 1005.96 453.318C1005.96 452.599 1006.13 451.955 1006.45 451.386C1006.78 450.817 1007.23 450.373 1007.8 450.056C1008.38 449.739 1009.03 449.58 1009.76 449.58C1010.39 449.58 1010.96 449.706 1011.45 449.958C1011.96 450.201 1012.35 450.56 1012.64 451.036L1011.9 451.54C1011.66 451.176 1011.35 450.905 1010.98 450.728C1010.6 450.541 1010.2 450.448 1009.76 450.448C1009.23 450.448 1008.74 450.569 1008.32 450.812C1007.9 451.045 1007.56 451.381 1007.32 451.82C1007.09 452.259 1006.97 452.758 1006.97 453.318C1006.97 453.887 1007.09 454.391 1007.32 454.83C1007.56 455.259 1007.9 455.595 1008.32 455.838C1008.74 456.071 1009.23 456.188 1009.76 456.188C1010.2 456.188 1010.6 456.099 1010.98 455.922C1011.35 455.745 1011.66 455.474 1011.9 455.11L1012.64 455.614C1012.35 456.09 1011.96 456.454 1011.45 456.706C1010.95 456.949 1010.38 457.07 1009.76 457.07ZM1015.85 449.636H1016.85V457H1015.85V449.636ZM1016.36 448.026C1016.15 448.026 1015.98 447.956 1015.84 447.816C1015.7 447.676 1015.63 447.508 1015.63 447.312C1015.63 447.125 1015.7 446.962 1015.84 446.822C1015.98 446.682 1016.15 446.612 1016.36 446.612C1016.56 446.612 1016.74 446.682 1016.88 446.822C1017.02 446.953 1017.09 447.111 1017.09 447.298C1017.09 447.503 1017.02 447.676 1016.88 447.816C1016.74 447.956 1016.56 448.026 1016.36 448.026ZM1023.45 449.58C1024.41 449.58 1025.15 449.823 1025.66 450.308C1026.17 450.784 1026.43 451.493 1026.43 452.436V457H1025.48V455.852C1025.26 456.235 1024.92 456.533 1024.49 456.748C1024.06 456.963 1023.54 457.07 1022.95 457.07C1022.12 457.07 1021.47 456.874 1020.99 456.482C1020.5 456.09 1020.26 455.572 1020.26 454.928C1020.26 454.303 1020.48 453.799 1020.93 453.416C1021.39 453.033 1022.11 452.842 1023.1 452.842H1025.44V452.394C1025.44 451.759 1025.26 451.279 1024.91 450.952C1024.55 450.616 1024.03 450.448 1023.35 450.448C1022.88 450.448 1022.44 450.527 1022.01 450.686C1021.58 450.835 1021.21 451.045 1020.9 451.316L1020.45 450.574C1020.83 450.257 1021.27 450.014 1021.8 449.846C1022.32 449.669 1022.87 449.58 1023.45 449.58ZM1023.1 456.286C1023.66 456.286 1024.14 456.16 1024.54 455.908C1024.94 455.647 1025.24 455.273 1025.44 454.788V453.584H1023.13C1021.87 453.584 1021.24 454.023 1021.24 454.9C1021.24 455.329 1021.4 455.67 1021.73 455.922C1022.05 456.165 1022.51 456.286 1023.1 456.286ZM1030.39 446.612H1031.39V457H1030.39V446.612ZM1044.21 447.2C1045.46 447.2 1046.44 447.499 1047.15 448.096C1047.86 448.693 1048.22 449.515 1048.22 450.56C1048.22 451.605 1047.86 452.427 1047.15 453.024C1046.44 453.612 1045.46 453.906 1044.21 453.906H1041.58V457H1040.55V447.2H1044.21ZM1044.19 452.996C1045.16 452.996 1045.9 452.786 1046.41 452.366C1046.92 451.937 1047.18 451.335 1047.18 450.56C1047.18 449.767 1046.92 449.16 1046.41 448.74C1045.9 448.311 1045.16 448.096 1044.19 448.096H1041.58V452.996H1044.19ZM1054.02 449.58C1054.98 449.58 1055.71 449.823 1056.23 450.308C1056.74 450.784 1057 451.493 1057 452.436V457H1056.05V455.852C1055.82 456.235 1055.49 456.533 1055.05 456.748C1054.62 456.963 1054.11 457.07 1053.51 457.07C1052.69 457.07 1052.04 456.874 1051.55 456.482C1051.07 456.09 1050.82 455.572 1050.82 454.928C1050.82 454.303 1051.05 453.799 1051.5 453.416C1051.95 453.033 1052.68 452.842 1053.67 452.842H1056V452.394C1056 451.759 1055.83 451.279 1055.47 450.952C1055.12 450.616 1054.6 450.448 1053.92 450.448C1053.45 450.448 1053 450.527 1052.57 450.686C1052.14 450.835 1051.78 451.045 1051.47 451.316L1051.02 450.574C1051.39 450.257 1051.84 450.014 1052.36 449.846C1052.89 449.669 1053.44 449.58 1054.02 449.58ZM1053.67 456.286C1054.23 456.286 1054.71 456.16 1055.11 455.908C1055.51 455.647 1055.81 455.273 1056 454.788V453.584H1053.69C1052.43 453.584 1051.8 454.023 1051.8 454.9C1051.8 455.329 1051.97 455.67 1052.29 455.922C1052.62 456.165 1053.08 456.286 1053.67 456.286ZM1061.91 451.078C1062.14 450.583 1062.49 450.21 1062.94 449.958C1063.41 449.706 1063.99 449.58 1064.67 449.58V450.546L1064.43 450.532C1063.65 450.532 1063.05 450.77 1062.61 451.246C1062.17 451.722 1061.95 452.389 1061.95 453.248V457H1060.96V449.636H1061.91V451.078ZM1070.46 453.304L1068.72 454.9V457H1067.73V446.612H1068.72V453.654L1073.12 449.636H1074.35L1071.2 452.646L1074.64 457H1073.42L1070.46 453.304Z" fill="white"/>
<path d="M664.646 446.084C664.086 446.084 663.568 445.963 663.092 445.72C662.616 445.477 662.229 445.132 661.93 444.684L662.546 443.984C663.087 444.787 663.792 445.188 664.66 445.188C665.873 445.188 666.48 444.469 666.48 443.032V437.096H662.896V436.2H667.502V442.99C667.502 444.017 667.259 444.791 666.774 445.314C666.298 445.827 665.589 446.084 664.646 446.084ZM674.236 438.58C675.197 438.58 675.934 438.823 676.448 439.308C676.961 439.784 677.218 440.493 677.218 441.436V446H676.266V444.852C676.042 445.235 675.71 445.533 675.272 445.748C674.842 445.963 674.329 446.07 673.732 446.07C672.91 446.07 672.257 445.874 671.772 445.482C671.286 445.09 671.044 444.572 671.044 443.928C671.044 443.303 671.268 442.799 671.716 442.416C672.173 442.033 672.896 441.842 673.886 441.842H676.224V441.394C676.224 440.759 676.046 440.279 675.692 439.952C675.337 439.616 674.819 439.448 674.138 439.448C673.671 439.448 673.223 439.527 672.794 439.686C672.364 439.835 671.996 440.045 671.688 440.316L671.24 439.574C671.613 439.257 672.061 439.014 672.584 438.846C673.106 438.669 673.657 438.58 674.236 438.58ZM673.886 445.286C674.446 445.286 674.926 445.16 675.328 444.908C675.729 444.647 676.028 444.273 676.224 443.788V442.584H673.914C672.654 442.584 672.024 443.023 672.024 443.9C672.024 444.329 672.187 444.67 672.514 444.922C672.84 445.165 673.298 445.286 673.886 445.286ZM683.151 446.07C682.554 446.07 681.98 445.986 681.429 445.818C680.888 445.641 680.463 445.421 680.155 445.16L680.603 444.376C680.911 444.619 681.299 444.819 681.765 444.978C682.232 445.127 682.717 445.202 683.221 445.202C683.893 445.202 684.388 445.099 684.705 444.894C685.032 444.679 685.195 444.381 685.195 443.998C685.195 443.727 685.107 443.517 684.929 443.368C684.752 443.209 684.528 443.093 684.257 443.018C683.987 442.934 683.627 442.855 683.179 442.78C682.582 442.668 682.101 442.556 681.737 442.444C681.373 442.323 681.061 442.122 680.799 441.842C680.547 441.562 680.421 441.175 680.421 440.68C680.421 440.064 680.678 439.56 681.191 439.168C681.705 438.776 682.419 438.58 683.333 438.58C683.809 438.58 684.285 438.645 684.761 438.776C685.237 438.897 685.629 439.061 685.937 439.266L685.503 440.064C684.897 439.644 684.173 439.434 683.333 439.434C682.699 439.434 682.218 439.546 681.891 439.77C681.574 439.994 681.415 440.288 681.415 440.652C681.415 440.932 681.504 441.156 681.681 441.324C681.868 441.492 682.097 441.618 682.367 441.702C682.638 441.777 683.011 441.856 683.487 441.94C684.075 442.052 684.547 442.164 684.901 442.276C685.256 442.388 685.559 442.579 685.811 442.85C686.063 443.121 686.189 443.494 686.189 443.97C686.189 444.614 685.919 445.127 685.377 445.51C684.845 445.883 684.103 446.07 683.151 446.07ZM693.081 438.58C693.772 438.58 694.397 438.739 694.957 439.056C695.517 439.364 695.956 439.803 696.273 440.372C696.59 440.941 696.749 441.59 696.749 442.318C696.749 443.055 696.59 443.709 696.273 444.278C695.956 444.847 695.517 445.291 694.957 445.608C694.406 445.916 693.781 446.07 693.081 446.07C692.484 446.07 691.942 445.949 691.457 445.706C690.981 445.454 690.589 445.09 690.281 444.614V448.716H689.287V438.636H690.239V440.092C690.538 439.607 690.93 439.233 691.415 438.972C691.91 438.711 692.465 438.58 693.081 438.58ZM693.011 445.188C693.524 445.188 693.991 445.071 694.411 444.838C694.831 444.595 695.158 444.255 695.391 443.816C695.634 443.377 695.755 442.878 695.755 442.318C695.755 441.758 695.634 441.263 695.391 440.834C695.158 440.395 694.831 440.055 694.411 439.812C693.991 439.569 693.524 439.448 693.011 439.448C692.488 439.448 692.017 439.569 691.597 439.812C691.186 440.055 690.86 440.395 690.617 440.834C690.384 441.263 690.267 441.758 690.267 442.318C690.267 442.878 690.384 443.377 690.617 443.816C690.86 444.255 691.186 444.595 691.597 444.838C692.017 445.071 692.488 445.188 693.011 445.188ZM706.447 442.626H700.287C700.343 443.391 700.637 444.012 701.169 444.488C701.701 444.955 702.373 445.188 703.185 445.188C703.643 445.188 704.063 445.109 704.445 444.95C704.828 444.782 705.159 444.539 705.439 444.222L705.999 444.866C705.673 445.258 705.262 445.557 704.767 445.762C704.282 445.967 703.745 446.07 703.157 446.07C702.401 446.07 701.729 445.911 701.141 445.594C700.563 445.267 700.11 444.819 699.783 444.25C699.457 443.681 699.293 443.037 699.293 442.318C699.293 441.599 699.447 440.955 699.755 440.386C700.073 439.817 700.502 439.373 701.043 439.056C701.594 438.739 702.21 438.58 702.891 438.58C703.573 438.58 704.184 438.739 704.725 439.056C705.267 439.373 705.691 439.817 705.999 440.386C706.307 440.946 706.461 441.59 706.461 442.318L706.447 442.626ZM702.891 439.434C702.182 439.434 701.585 439.663 701.099 440.12C700.623 440.568 700.353 441.156 700.287 441.884H705.509C705.444 441.156 705.169 440.568 704.683 440.12C704.207 439.663 703.61 439.434 702.891 439.434ZM710.697 440.078C710.93 439.583 711.275 439.21 711.733 438.958C712.199 438.706 712.773 438.58 713.455 438.58V439.546L713.217 439.532C712.442 439.532 711.835 439.77 711.397 440.246C710.958 440.722 710.739 441.389 710.739 442.248V446H709.745V438.636H710.697V440.078Z" fill="white"/>
<path d="M350.77 440.946C351.414 441.086 351.909 441.366 352.254 441.786C352.609 442.197 352.786 442.729 352.786 443.382C352.786 444.222 352.473 444.871 351.848 445.328C351.232 445.776 350.317 446 349.104 446H344.596V436.2H348.824C349.916 436.2 350.761 436.419 351.358 436.858C351.965 437.297 352.268 437.917 352.268 438.72C352.268 439.261 352.133 439.723 351.862 440.106C351.601 440.479 351.237 440.759 350.77 440.946ZM345.632 437.054V440.61H348.754C349.547 440.61 350.159 440.461 350.588 440.162C351.017 439.854 351.232 439.411 351.232 438.832C351.232 438.253 351.017 437.815 350.588 437.516C350.159 437.208 349.547 437.054 348.754 437.054H345.632ZM349.09 445.146C349.967 445.146 350.63 444.997 351.078 444.698C351.526 444.399 351.75 443.933 351.75 443.298C351.75 442.075 350.863 441.464 349.09 441.464H345.632V445.146H349.09ZM358.777 438.58C359.738 438.58 360.475 438.823 360.989 439.308C361.502 439.784 361.759 440.493 361.759 441.436V446H360.807V444.852C360.583 445.235 360.251 445.533 359.813 445.748C359.383 445.963 358.87 446.07 358.273 446.07C357.451 446.07 356.798 445.874 356.313 445.482C355.827 445.09 355.585 444.572 355.585 443.928C355.585 443.303 355.809 442.799 356.257 442.416C356.714 442.033 357.437 441.842 358.427 441.842H360.765V441.394C360.765 440.759 360.587 440.279 360.233 439.952C359.878 439.616 359.36 439.448 358.679 439.448C358.212 439.448 357.764 439.527 357.335 439.686C356.905 439.835 356.537 440.045 356.229 440.316L355.781 439.574C356.154 439.257 356.602 439.014 357.125 438.846C357.647 438.669 358.198 438.58 358.777 438.58ZM358.427 445.286C358.987 445.286 359.467 445.16 359.869 444.908C360.27 444.647 360.569 444.273 360.765 443.788V442.584H358.455C357.195 442.584 356.565 443.023 356.565 443.9C356.565 444.329 356.728 444.67 357.055 444.922C357.381 445.165 357.839 445.286 358.427 445.286ZM369.471 438.58C370.395 438.58 371.127 438.851 371.669 439.392C372.219 439.924 372.495 440.703 372.495 441.73V446H371.501V441.828C371.501 441.063 371.309 440.479 370.927 440.078C370.544 439.677 369.998 439.476 369.289 439.476C368.495 439.476 367.865 439.714 367.399 440.19C366.941 440.657 366.713 441.305 366.713 442.136V446H365.719V438.636H366.671V439.994C366.941 439.546 367.315 439.201 367.791 438.958C368.276 438.706 368.836 438.58 369.471 438.58ZM378.889 436.382C378.46 436.382 378.133 436.499 377.909 436.732C377.694 436.965 377.587 437.311 377.587 437.768V438.636H379.855V439.476H377.615V446H376.621V439.476H375.305V438.636H376.621V437.726C376.621 437.054 376.812 436.522 377.195 436.13C377.587 435.738 378.138 435.542 378.847 435.542C379.127 435.542 379.398 435.584 379.659 435.668C379.92 435.743 380.14 435.855 380.317 436.004L379.981 436.746C379.692 436.503 379.328 436.382 378.889 436.382ZM384.893 436.382C384.464 436.382 384.137 436.499 383.913 436.732C383.699 436.965 383.591 437.311 383.591 437.768V438.636H385.859V439.476H383.619V446H382.625V439.476H381.309V438.636H382.625V437.726C382.625 437.054 382.817 436.522 383.199 436.13C383.591 435.738 384.142 435.542 384.851 435.542C385.131 435.542 385.402 435.584 385.663 435.668C385.925 435.743 386.144 435.855 386.321 436.004L385.985 436.746C385.696 436.503 385.332 436.382 384.893 436.382Z" fill="white"/>
<path d="M15.852 441.084C14.8813 441.084 14.004 440.869 13.22 440.44C12.4453 440.011 11.834 439.418 11.386 438.662C10.9473 437.897 10.728 437.043 10.728 436.1C10.728 435.157 10.9473 434.308 11.386 433.552C11.834 432.787 12.45 432.189 13.234 431.76C14.018 431.331 14.8953 431.116 15.866 431.116C16.594 431.116 17.266 431.237 17.882 431.48C18.498 431.723 19.0207 432.077 19.45 432.544L18.792 433.202C18.0267 432.427 17.0607 432.04 15.894 432.04C15.1193 432.04 14.4147 432.217 13.78 432.572C13.1453 432.927 12.646 433.412 12.282 434.028C11.9273 434.644 11.75 435.335 11.75 436.1C11.75 436.865 11.9273 437.556 12.282 438.172C12.646 438.788 13.1453 439.273 13.78 439.628C14.4147 439.983 15.1193 440.16 15.894 440.16C17.07 440.16 18.036 439.768 18.792 438.984L19.45 439.642C19.0207 440.109 18.4933 440.468 17.868 440.72C17.252 440.963 16.58 441.084 15.852 441.084ZM25.1751 433.58C26.1365 433.58 26.8738 433.823 27.3871 434.308C27.9005 434.784 28.1571 435.493 28.1571 436.436V441H27.2051V439.852C26.9811 440.235 26.6498 440.533 26.2111 440.748C25.7818 440.963 25.2685 441.07 24.6711 441.07C23.8498 441.07 23.1965 440.874 22.7111 440.482C22.2258 440.09 21.9831 439.572 21.9831 438.928C21.9831 438.303 22.2071 437.799 22.6551 437.416C23.1125 437.033 23.8358 436.842 24.8251 436.842H27.1631V436.394C27.1631 435.759 26.9858 435.279 26.6311 434.952C26.2765 434.616 25.7585 434.448 25.0771 434.448C24.6105 434.448 24.1625 434.527 23.7331 434.686C23.3038 434.835 22.9351 435.045 22.6271 435.316L22.1791 434.574C22.5525 434.257 23.0005 434.014 23.5231 433.846C24.0458 433.669 24.5965 433.58 25.1751 433.58ZM24.8251 440.286C25.3851 440.286 25.8658 440.16 26.2671 439.908C26.6685 439.647 26.9671 439.273 27.1631 438.788V437.584H24.8531C23.5931 437.584 22.9631 438.023 22.9631 438.9C22.9631 439.329 23.1265 439.67 23.4531 439.922C23.7798 440.165 24.2371 440.286 24.8251 440.286ZM32.1169 430.612H33.1109V441H32.1169V430.612ZM43.9547 433.636V440.104C43.9547 441.355 43.6467 442.279 43.0307 442.876C42.424 443.483 41.5047 443.786 40.2727 443.786C39.5914 443.786 38.9427 443.683 38.3267 443.478C37.72 443.282 37.2254 443.007 36.8427 442.652L37.3467 441.896C37.7014 442.213 38.1307 442.461 38.6347 442.638C39.148 442.815 39.6847 442.904 40.2447 442.904C41.178 442.904 41.864 442.685 42.3027 442.246C42.7414 441.817 42.9607 441.145 42.9607 440.23V439.292C42.6527 439.759 42.2467 440.113 41.7427 440.356C41.248 440.599 40.6974 440.72 40.0907 440.72C39.4 440.72 38.77 440.571 38.2007 440.272C37.6407 439.964 37.1974 439.539 36.8707 438.998C36.5534 438.447 36.3947 437.827 36.3947 437.136C36.3947 436.445 36.5534 435.829 36.8707 435.288C37.1974 434.747 37.6407 434.327 38.2007 434.028C38.7607 433.729 39.3907 433.58 40.0907 433.58C40.716 433.58 41.2807 433.706 41.7847 433.958C42.2887 434.21 42.6947 434.574 43.0027 435.05V433.636H43.9547ZM40.1887 439.838C40.7207 439.838 41.2014 439.726 41.6307 439.502C42.06 439.269 42.3914 438.947 42.6247 438.536C42.8674 438.125 42.9887 437.659 42.9887 437.136C42.9887 436.613 42.8674 436.151 42.6247 435.75C42.3914 435.339 42.06 435.022 41.6307 434.798C41.2107 434.565 40.73 434.448 40.1887 434.448C39.6567 434.448 39.176 434.56 38.7467 434.784C38.3267 435.008 37.9954 435.325 37.7527 435.736C37.5194 436.147 37.4027 436.613 37.4027 437.136C37.4027 437.659 37.5194 438.125 37.7527 438.536C37.9954 438.947 38.3267 439.269 38.7467 439.502C39.176 439.726 39.6567 439.838 40.1887 439.838ZM50.5704 433.58C51.5317 433.58 52.269 433.823 52.7824 434.308C53.2957 434.784 53.5524 435.493 53.5524 436.436V441H52.6004V439.852C52.3764 440.235 52.045 440.533 51.6064 440.748C51.177 440.963 50.6637 441.07 50.0664 441.07C49.245 441.07 48.5917 440.874 48.1064 440.482C47.621 440.09 47.3784 439.572 47.3784 438.928C47.3784 438.303 47.6024 437.799 48.0504 437.416C48.5077 437.033 49.231 436.842 50.2204 436.842H52.5584V436.394C52.5584 435.759 52.381 435.279 52.0264 434.952C51.6717 434.616 51.1537 434.448 50.4724 434.448C50.0057 434.448 49.5577 434.527 49.1284 434.686C48.699 434.835 48.3304 435.045 48.0224 435.316L47.5744 434.574C47.9477 434.257 48.3957 434.014 48.9184 433.846C49.441 433.669 49.9917 433.58 50.5704 433.58ZM50.2204 440.286C50.7804 440.286 51.261 440.16 51.6624 439.908C52.0637 439.647 52.3624 439.273 52.5584 438.788V437.584H50.2484C48.9884 437.584 48.3584 438.023 48.3584 438.9C48.3584 439.329 48.5217 439.67 48.8484 439.922C49.175 440.165 49.6324 440.286 50.2204 440.286ZM58.4642 435.078C58.6975 434.583 59.0428 434.21 59.5002 433.958C59.9668 433.706 60.5408 433.58 61.2222 433.58V434.546L60.9842 434.532C60.2095 434.532 59.6028 434.77 59.1642 435.246C58.7255 435.722 58.5062 436.389 58.5062 437.248V441H57.5122V433.636H58.4642V435.078ZM70.7844 433.636L67.1024 441.882C66.8037 442.573 66.4584 443.063 66.0664 443.352C65.6744 443.641 65.2031 443.786 64.6524 443.786C64.2977 443.786 63.9664 443.73 63.6584 443.618C63.3504 443.506 63.0844 443.338 62.8604 443.114L63.3224 442.372C63.6957 442.745 64.1437 442.932 64.6664 442.932C65.0024 442.932 65.2871 442.839 65.5204 442.652C65.7631 442.465 65.9871 442.148 66.1924 441.7L66.5144 440.986L63.2244 433.636H64.2604L67.0324 439.894L69.8044 433.636H70.7844Z" fill="white"/>
<path d="M42.3781 361.862C42.9941 362.067 43.4655 362.375 43.7921 362.786C44.1281 363.197 44.2961 363.691 44.2961 364.27C44.2961 364.839 44.1421 365.339 43.8341 365.768C43.5261 366.188 43.0828 366.515 42.5041 366.748C41.9348 366.972 41.2628 367.084 40.4881 367.084C39.3121 367.084 38.3881 366.832 37.7161 366.328C37.0441 365.824 36.7081 365.138 36.7081 364.27C36.7081 363.682 36.8668 363.187 37.1841 362.786C37.5108 362.375 37.9821 362.067 38.5981 361.862C38.0941 361.666 37.7115 361.386 37.4501 361.022C37.1888 360.649 37.0581 360.21 37.0581 359.706C37.0581 358.913 37.3661 358.283 37.9821 357.816C38.6075 357.349 39.4428 357.116 40.4881 357.116C41.1788 357.116 41.7808 357.223 42.2941 357.438C42.8168 357.643 43.2228 357.942 43.5121 358.334C43.8015 358.726 43.9461 359.183 43.9461 359.706C43.9461 360.21 43.8108 360.649 43.5401 361.022C43.2695 361.386 42.8821 361.666 42.3781 361.862ZM38.0661 359.734C38.0661 360.275 38.2808 360.705 38.7101 361.022C39.1395 361.339 39.7321 361.498 40.4881 361.498C41.2441 361.498 41.8368 361.339 42.2661 361.022C42.7048 360.705 42.9241 360.28 42.9241 359.748C42.9241 359.197 42.7001 358.763 42.2521 358.446C41.8135 358.129 41.2255 357.97 40.4881 357.97C39.7415 357.97 39.1488 358.129 38.7101 358.446C38.2808 358.763 38.0661 359.193 38.0661 359.734ZM40.4881 366.23C41.3561 366.23 42.0328 366.053 42.5181 365.698C43.0128 365.343 43.2601 364.863 43.2601 364.256C43.2601 363.649 43.0128 363.173 42.5181 362.828C42.0328 362.473 41.3561 362.296 40.4881 362.296C39.6295 362.296 38.9528 362.473 38.4581 362.828C37.9728 363.173 37.7301 363.649 37.7301 364.256C37.7301 364.872 37.9728 365.357 38.4581 365.712C38.9435 366.057 39.6201 366.23 40.4881 366.23Z" fill="white"/>
<path d="M40 394C21.7746 394 7 379.225 7 361H5C5 380.33 20.67 396 40 396V394ZM73 361C73 379.225 58.2254 394 40 394V396C59.33 396 75 380.33 75 361H73ZM40 328C58.2254 328 73 342.775 73 361H75C75 341.67 59.33 326 40 326V328ZM40 326C20.67 326 5 341.67 5 361H7C7 342.775 21.7746 328 40 328V326Z" fill="white"/>
<path d="M368.022 357.2V357.914L363.92 367H362.828L366.86 358.096H361.82V359.93H360.826V357.2H368.022Z" fill="white"/>
<path d="M364 394C345.775 394 331 379.225 331 361H329C329 380.33 344.67 396 364 396V394ZM397 361C397 379.225 382.225 394 364 394V396C383.33 396 399 380.33 399 361H397ZM364 328C382.225 328 397 342.775 397 361H399C399 341.67 383.33 326 364 326V328ZM364 326C344.67 326 329 341.67 329 361H331C331 342.775 345.775 328 364 328V326Z" fill="white"/>
<path d="M689.022 361.134C689.666 361.134 690.236 361.255 690.73 361.498C691.234 361.741 691.626 362.086 691.906 362.534C692.186 362.973 692.326 363.486 692.326 364.074C692.326 364.671 692.182 365.199 691.892 365.656C691.603 366.113 691.202 366.468 690.688 366.72C690.184 366.963 689.615 367.084 688.98 367.084C687.683 367.084 686.689 366.659 685.998 365.81C685.308 364.951 684.962 363.743 684.962 362.184C684.962 361.092 685.149 360.168 685.522 359.412C685.896 358.656 686.418 358.087 687.09 357.704C687.762 357.312 688.546 357.116 689.442 357.116C690.413 357.116 691.188 357.293 691.766 357.648L691.36 358.46C690.894 358.152 690.259 357.998 689.456 357.998C688.374 357.998 687.524 358.343 686.908 359.034C686.292 359.715 685.984 360.709 685.984 362.016C685.984 362.249 685.998 362.515 686.026 362.814C686.269 362.282 686.656 361.871 687.188 361.582C687.72 361.283 688.332 361.134 689.022 361.134ZM688.938 366.23C689.648 366.23 690.222 366.039 690.66 365.656C691.108 365.264 691.332 364.746 691.332 364.102C691.332 363.458 691.108 362.945 690.66 362.562C690.222 362.179 689.624 361.988 688.868 361.988C688.374 361.988 687.935 362.081 687.552 362.268C687.179 362.455 686.885 362.711 686.67 363.038C686.456 363.365 686.348 363.729 686.348 364.13C686.348 364.503 686.446 364.849 686.642 365.166C686.848 365.483 687.146 365.74 687.538 365.936C687.93 366.132 688.397 366.23 688.938 366.23Z" fill="white"/>
<path d="M688 394C669.775 394 655 379.225 655 361H653C653 380.33 668.67 396 688 396V394ZM721 361C721 379.225 706.225 394 688 394V396C707.33 396 723 380.33 723 361H721ZM688 328C706.225 328 721 342.775 721 361H723C723 341.67 707.33 326 688 326V328ZM688 326C668.67 326 653 341.67 653 361H655C655 342.775 669.775 328 688 328V326Z" fill="white"/>
<path d="M1011.34 361.218C1012.76 361.218 1013.79 361.475 1014.43 361.988C1015.09 362.492 1015.41 363.201 1015.41 364.116C1015.41 364.685 1015.28 365.194 1015.01 365.642C1014.75 366.09 1014.35 366.445 1013.82 366.706C1013.29 366.958 1012.63 367.084 1011.86 367.084C1011.16 367.084 1010.49 366.972 1009.86 366.748C1009.23 366.515 1008.73 366.207 1008.34 365.824L1008.83 365.026C1009.16 365.362 1009.59 365.637 1010.12 365.852C1010.65 366.057 1011.23 366.16 1011.84 366.16C1012.66 366.16 1013.28 365.978 1013.72 365.614C1014.17 365.25 1014.39 364.765 1014.39 364.158C1014.39 363.486 1014.14 362.977 1013.64 362.632C1013.14 362.287 1012.3 362.114 1011.12 362.114H1009.03L1009.53 357.2H1014.9V358.096H1010.42L1010.08 361.218H1011.34Z" fill="white"/>
<path d="M1012 394C993.775 394 979 379.225 979 361H977C977 380.33 992.67 396 1012 396V394ZM1045 361C1045 379.225 1030.23 394 1012 394V396C1031.33 396 1047 380.33 1047 361H1045ZM1012 328C1030.23 328 1045 342.775 1045 361H1047C1047 341.67 1031.33 326 1012 326V328ZM1012 326C992.67 326 977 341.67 977 361H979C979 342.775 993.775 328 1012 328V326Z" fill="white"/>
<path d="M108.411 361H294.576" stroke="white"/>
<path d="M435.411 361H621.576" stroke="white"/>
<path d="M762.411 361H948.576" stroke="white"/>
<path d="M1012 251V309.5" stroke="white"/>
<path d="M305.82 29.24C303.72 29.24 301.82 28.78 300.12 27.86C298.44 26.92 297.12 25.64 296.16 24.02C295.2 22.38 294.72 20.54 294.72 18.5C294.72 16.46 295.2 14.63 296.16 13.01C297.12 11.37 298.45 10.09 300.15 9.17C301.85 8.23 303.75 7.76 305.85 7.76C307.49 7.76 308.99 8.04 310.35 8.6C311.71 9.14 312.87 9.95 313.83 11.03L311.88 12.92C310.3 11.26 308.33 10.43 305.97 10.43C304.41 10.43 303 10.78 301.74 11.48C300.48 12.18 299.49 13.15 298.77 14.39C298.07 15.61 297.72 16.98 297.72 18.5C297.72 20.02 298.07 21.4 298.77 22.64C299.49 23.86 300.48 24.82 301.74 25.52C303 26.22 304.41 26.57 305.97 26.57C308.31 26.57 310.28 25.73 311.88 24.05L313.83 25.94C312.87 27.02 311.7 27.84 310.32 28.4C308.96 28.96 307.46 29.24 305.82 29.24ZM338.792 23.75H327.632L325.322 29H322.232L331.742 8H334.712L344.252 29H341.102L338.792 23.75ZM337.742 21.35L333.212 11.06L328.682 21.35H337.742ZM374.654 29L374.624 13.7L367.034 26.45H365.654L358.064 13.79V29H355.184V8H357.644L366.404 22.76L375.044 8H377.504L377.534 29H374.654ZM399.827 8C402.547 8 404.687 8.65 406.247 9.95C407.807 11.25 408.587 13.04 408.587 15.32C408.587 17.6 407.807 19.39 406.247 20.69C404.687 21.99 402.547 22.64 399.827 22.64H394.637V29H391.637V8H399.827ZM399.737 20.03C401.637 20.03 403.087 19.63 404.087 18.83C405.087 18.01 405.587 16.84 405.587 15.32C405.587 13.8 405.087 12.64 404.087 11.84C403.087 11.02 401.637 10.61 399.737 10.61H394.637V20.03H399.737ZM436.034 26.39V29H420.794V8H435.614V10.61H423.794V17.06H434.324V19.61H423.794V26.39H436.034ZM462.732 29L458.202 22.55C457.642 22.59 457.202 22.61 456.882 22.61H451.692V29H448.692V8H456.882C459.602 8 461.742 8.65 463.302 9.95C464.862 11.25 465.642 13.04 465.642 15.32C465.642 16.94 465.242 18.32 464.442 19.46C463.642 20.6 462.502 21.43 461.022 21.95L466.002 29H462.732ZM456.792 20.06C458.692 20.06 460.142 19.65 461.142 18.83C462.142 18.01 462.642 16.84 462.642 15.32C462.642 13.8 462.142 12.64 461.142 11.84C460.142 11.02 458.692 10.61 456.792 10.61H451.692V20.06H456.792ZM498.315 10.61H491.115V8H508.485V10.61H501.285V29H498.315V10.61ZM533.593 29L529.063 22.55C528.503 22.59 528.063 22.61 527.743 22.61H522.553V29H519.553V8H527.743C530.463 8 532.603 8.65 534.163 9.95C535.723 11.25 536.503 13.04 536.503 15.32C536.503 16.94 536.103 18.32 535.303 19.46C534.503 20.6 533.363 21.43 531.883 21.95L536.863 29H533.593ZM527.653 20.06C529.553 20.06 531.003 19.65 532.003 18.83C533.003 18.01 533.503 16.84 533.503 15.32C533.503 13.8 533.003 12.64 532.003 11.84C531.003 11.02 529.553 10.61 527.653 10.61H522.553V20.06H527.653ZM562.53 23.75H551.37L549.06 29H545.97L555.48 8H558.45L567.99 29H564.84L562.53 23.75ZM561.48 21.35L556.95 11.06L552.42 21.35H561.48ZM596.049 8L586.839 29H583.869L574.629 8H577.869L585.429 25.25L593.049 8H596.049ZM621.767 26.39V29H606.527V8H621.347V10.61H609.527V17.06H620.057V19.61H609.527V26.39H621.767ZM634.425 8H637.425V26.39H648.795V29H634.425V8ZM684.084 8C686.804 8 688.944 8.65 690.504 9.95C692.064 11.25 692.844 13.04 692.844 15.32C692.844 17.6 692.064 19.39 690.504 20.69C688.944 21.99 686.804 22.64 684.084 22.64H678.894V29H675.894V8H684.084ZM683.994 20.03C685.894 20.03 687.344 19.63 688.344 18.83C689.344 18.01 689.844 16.84 689.844 15.32C689.844 13.8 689.344 12.64 688.344 11.84C687.344 11.02 685.894 10.61 683.994 10.61H678.894V20.03H683.994ZM705.051 8H708.051V26.39H719.421V29H705.051V8ZM744.132 23.75H732.972L730.662 29H727.572L737.082 8H740.052L749.592 29H746.442L744.132 23.75ZM743.082 21.35L738.552 11.06L734.022 21.35H743.082ZM778.584 8V29H776.124L763.524 13.34V29H760.524V8H762.984L775.584 23.66V8H778.584Z" fill="#FFEAA0"/>
</svg>
