<svg width="22" height="19" viewBox="0 0 22 19" fill="none" xmlns="http://www.w3.org/2000/svg">
<path d="M22 2.25375C21.191 2.6346 20.3219 2.89193 19.4082 3.00825C20.3509 2.40896 21.0562 1.46576 21.3925 0.354625C20.5068 0.913543 19.5374 1.30696 18.5265 1.51777C17.8467 0.746662 16.9462 0.235558 15.965 0.0638109C14.9837 -0.107936 13.9766 0.0692844 13.0999 0.567957C12.2231 1.06663 11.5259 1.85885 11.1164 2.82163C10.7069 3.78441 10.6081 4.86388 10.8353 5.89244C9.04057 5.79671 7.28485 5.30114 5.68208 4.4379C4.07931 3.57465 2.66531 2.36302 1.53184 0.881644C1.14428 1.59188 0.921431 2.41535 0.921431 3.29235C0.920998 4.08184 1.104 4.85924 1.45421 5.55558C1.80442 6.25191 2.311 6.84565 2.92901 7.2841C2.21228 7.25988 1.51137 7.05413 0.884612 6.684V6.74576C0.88454 7.85306 1.24508 8.92628 1.90505 9.78333C2.56502 10.6404 3.48377 11.2284 4.50542 11.4478C3.84054 11.6389 3.14346 11.6671 2.46684 11.5301C2.75508 12.4829 3.31656 13.316 4.07267 13.9129C4.82878 14.5099 5.74166 14.8406 6.68352 14.859C5.08466 16.1924 3.11008 16.9157 1.07742 16.9125C0.71736 16.9126 0.357601 16.8903 0 16.8456C2.06326 18.2549 4.46505 19.0029 6.918 19C15.2215 19 19.7609 11.6938 19.7609 5.35719C19.7609 5.15132 19.756 4.9434 19.7473 4.73753C20.6302 4.05917 21.3924 3.21916 21.9981 2.25683L22 2.25375Z" fill="white"/>
</svg>
