<svg width="12" height="12" viewBox="0 0 12 12" fill="none" xmlns="http://www.w3.org/2000/svg">
<path d="M11.2478 12C4.84951 12.009 -0.00674297 7.095 7.02802e-06 0.75225C7.02802e-06 0.3375 0.336007 0 0.750007 0H2.73001C3.10126 0 3.41701 0.273 3.47176 0.6405C3.60233 1.52179 3.8587 2.37979 4.23301 3.18825L4.31026 3.35475C4.36215 3.46679 4.37331 3.59343 4.34182 3.71282C4.31033 3.83222 4.23816 3.93688 4.13776 4.00875C3.52426 4.44675 3.29026 5.328 3.76801 6.015C4.36726 6.8775 5.12251 7.6335 5.98501 8.23275C6.67276 8.70975 7.55401 8.47575 7.99126 7.863C8.06306 7.7623 8.1678 7.68986 8.28737 7.65822C8.40693 7.62658 8.5338 7.63774 8.64601 7.68975L8.81176 7.76625C9.62026 8.14125 10.4783 8.39775 11.3595 8.52825C11.727 8.583 12 8.89875 12 9.27075V11.25C12 11.3486 11.9806 11.4461 11.9428 11.5372C11.9051 11.6282 11.8498 11.7109 11.7801 11.7806C11.7103 11.8502 11.6276 11.9055 11.5365 11.9431C11.4454 11.9808 11.3478 12.0001 11.2493 12H11.2478Z" fill="white"/>
</svg>
